<svg viewBox="0 0 160 256" fill="none" xmlns="http://www.w3.org/2000/svg"><g clip-path="url(#a)"><path fill="#fff" d="M0 0h160v256H0z"/><path d="M34.9999 28.6666 11.3333 4.99992h20.3333c1.8333 0 3.3333 1.5 3.3333 3.33333V28.6666Zm-.5 8-1.6666-1.6667H8.33325c-1.83333 0-3.33333-1.5-3.33333-3.3333V7.16659L3.33325 5.49992l2.16667-2.16667L36.6666 34.4999l-2.1667 2.1667Zm-6.5-6.6667-6.5-6.5-3.1666 4-4.1667-5-5.83335 7.5H27.9999Z" fill="#000"/><path d="M34.9999 68.6666 11.3333 44.9999h20.3333c1.8333 0 3.3333 1.5 3.3333 3.3334v20.3333Zm-.5 8-1.6666-1.6667H8.33325c-1.83333 0-3.33333-1.5-3.33333-3.3333v-24.5l-1.66667-1.6667 2.16667-2.1666L36.6666 74.4999l-2.1667 2.1667Zm-6.5-6.6667-6.5-6.5-3.1666 4-4.1667-5-5.83335 7.5H27.9999Z" fill="#83339E"/><path d="M34.9999 108.667 11.3333 84.9999h20.3333c1.8333 0 3.3333 1.5 3.3333 3.3334v20.3337Zm-.5 8L32.8333 115H8.33325c-1.83333 0-3.33333-1.5-3.33333-3.333V87.1666l-1.66667-1.6667 2.16667-2.1666L36.6666 114.5l-2.1667 2.167Zm-6.5-6.667-6.5-6.5-3.1666 4-4.1667-5-5.83335 7.5H27.9999Z" fill="#000"/><path d="M34.9999 148.667 11.3333 125h20.3333c1.8333 0 3.3333 1.5 3.3333 3.333v20.334Zm-.5 8L32.8333 155H8.33325c-1.83333 0-3.33333-1.5-3.33333-3.333v-24.5L3.33325 125.5l2.16667-2.167L36.6666 154.5l-2.1667 2.167Zm-6.5-6.667-6.5-6.5-3.1666 4-4.1667-5-5.83335 7.5H27.9999Z" fill="#83339E"/><path d="M34.9999 188.667 11.3333 165h20.3333c1.8333 0 3.3333 1.5 3.3333 3.333v20.334Zm-.5 8L32.8333 195H8.33325c-1.83333 0-3.33333-1.5-3.33333-3.333v-24.5L3.33325 165.5l2.16667-2.167L36.6666 194.5l-2.1667 2.167Zm-6.5-6.667-6.5-6.5-3.1666 4-4.1667-5-5.83335 7.5H27.9999Z" fill="#000"/><path d="M34.9999 228.667 11.3333 205h20.3333c1.8333 0 3.3333 1.5 3.3333 3.333v20.334Zm-.5 8L32.8333 235H8.33325c-1.83333 0-3.33333-1.5-3.33333-3.333v-24.5L3.33325 205.5l2.16667-2.167L36.6666 234.5l-2.1667 2.167Zm-6.5-6.667-6.5-6.5-3.1666 4-4.1667-5-5.83335 7.5H27.9999Z" fill="#83339E"/><path d="M34.9999 268.667 11.3333 245h20.3333c1.8333 0 3.3333 1.5 3.3333 3.333v20.334Zm-.5 8L32.8333 275H8.33325c-1.83333 0-3.33333-1.5-3.33333-3.333v-24.5L3.33325 245.5l2.16667-2.167L36.6666 274.5l-2.1667 2.167Zm-6.5-6.667-6.5-6.5-3.1666 4-4.1667-5-5.83335 7.5H27.9999ZM70.0001 219.333c.884 0 1.7319.351 2.357.977.6251.625.9763 1.473.9763 2.357v26.666c0 .884-.3512 1.732-.9763 2.357-.6251.625-1.473.977-2.357.977h-20c-.8841 0-1.7319-.352-2.357-.977-.6252-.625-.9764-1.473-.9764-2.357v-26.666c0-.884.3512-1.732.9764-2.357.6251-.626 1.4729-.977 2.357-.977h20Zm0 3.334h-8.3334V236l-4.1666-3.75-4.1667 3.75v-13.333h-3.3333v26.666h20v-26.666Z" fill="#000"/><path d="M70.0001 179.333c.884 0 1.7319.351 2.357.977.6251.625.9763 1.473.9763 2.357v26.666c0 .884-.3512 1.732-.9763 2.357-.6251.625-1.473.977-2.357.977h-20c-.8841 0-1.7319-.352-2.357-.977-.6252-.625-.9764-1.473-.9764-2.357v-26.666c0-.884.3512-1.732.9764-2.357.6251-.626 1.4729-.977 2.357-.977h20Zm0 3.334h-8.3334V196l-4.1666-3.75-4.1667 3.75v-13.333h-3.3333v26.666h20v-26.666Z" fill="#83339E"/><path d="M70.0001 139.333c.884 0 1.7319.351 2.357.977.6251.625.9763 1.473.9763 2.357v26.666c0 .884-.3512 1.732-.9763 2.357-.6251.625-1.473.977-2.357.977h-20c-.8841 0-1.7319-.352-2.357-.977-.6252-.625-.9764-1.473-.9764-2.357v-26.666c0-.884.3512-1.732.9764-2.357.6251-.626 1.4729-.977 2.357-.977h20Zm0 3.334h-8.3334V156l-4.1666-3.75-4.1667 3.75v-13.333h-3.3333v26.666h20v-26.666Z" fill="#000"/><path d="M70.0001 99.3333c.884 0 1.7319.3511 2.357.9767.6251.625.9763 1.473.9763 2.357v26.666c0 .884-.3512 1.732-.9763 2.357-.6251.625-1.473.977-2.357.977h-20c-.8841 0-1.7319-.352-2.357-.977-.6252-.625-.9764-1.473-.9764-2.357v-26.666c0-.884.3512-1.732.9764-2.357.6251-.6256 1.4729-.9767 2.357-.9767h20Zm0 3.3337h-8.3334V116l-4.1666-3.75-4.1667 3.75v-13.333h-3.3333v26.666h20v-26.666Z" fill="#83339E"/><path d="M70.0001 59.3333c.884 0 1.7319.3511 2.357.9763.6251.6251.9763 1.4729.9763 2.357v26.6667c0 .884-.3512 1.7319-.9763 2.357-.6251.6251-1.473.9763-2.357.9763h-20c-.8841 0-1.7319-.3512-2.357-.9763-.6252-.6251-.9764-1.473-.9764-2.357V62.6666c0-.8841.3512-1.7319.9764-2.357.6251-.6252 1.4729-.9763 2.357-.9763h20Zm0 3.3333h-8.3334v13.3333l-4.1666-3.75-4.1667 3.75V62.6666h-3.3333v26.6667h20V62.6666Z" fill="#000"/><path d="M70.0001 19.3333c.884 0 1.7319.3511 2.357.9763.6251.6251.9763 1.4729.9763 2.357v26.6667c0 .884-.3512 1.7319-.9763 2.357-.6251.6251-1.473.9763-2.357.9763h-20c-.8841 0-1.7319-.3512-2.357-.9763-.6252-.6251-.9764-1.473-.9764-2.357V22.6666c0-.8841.3512-1.7319.9764-2.357.6251-.6252 1.4729-.9763 2.357-.9763h20Zm0 3.3333h-8.3334v13.3333l-4.1666-3.75-4.1667 3.75V22.6666h-3.3333v26.6667h20V22.6666Z" fill="#83339E"/><path d="M70.0001-20.6667c.884 0 1.7319.3511 2.357.9763.6251.6251.9763 1.4729.9763 2.357V9.33325c0 .88405-.3512 1.73195-.9763 2.35705s-1.473.9763-2.357.9763h-20c-.8841 0-1.7319-.3512-2.357-.9763-.6252-.6251-.9764-1.473-.9764-2.35705V-17.3334c0-.8841.3512-1.7319.9764-2.357.6251-.6252 1.4729-.9763 2.357-.9763h20Zm0 3.3333h-8.3334v13.33332l-4.1666-3.75-4.1667 3.75V-17.3334h-3.3333V9.33325h20V-17.3334Z" fill="#000"/><path d="M115 28.6666 91.3333 4.99992h20.3337c1.833 0 3.333 1.5 3.333 3.33333V28.6666Zm-.5 8-1.667-1.6667H88.3333c-1.8334 0-3.3334-1.5-3.3334-3.3333V7.16659l-1.6666-1.66667 2.1666-2.16667L116.667 34.4999l-2.167 2.1667Zm-6.5-6.6667-6.5-6.5-3.1667 4-4.1667-5-5.8333 7.5H108Z" fill="#83339E"/><path d="M115 68.6666 91.3333 44.9999h20.3337c1.833 0 3.333 1.5 3.333 3.3334v20.3333Zm-.5 8-1.667-1.6667H88.3333c-1.8334 0-3.3334-1.5-3.3334-3.3333v-24.5l-1.6666-1.6667 2.1666-2.1666 31.1671 31.1666-2.167 2.1667Zm-6.5-6.6667-6.5-6.5-3.1667 4-4.1667-5-5.8333 7.5H108Z" fill="#000"/><path d="M115 108.667 91.3333 84.9999h20.3337c1.833 0 3.333 1.5 3.333 3.3334v20.3337Zm-.5 8L112.833 115H88.3333c-1.8334 0-3.3334-1.5-3.3334-3.333V87.1666l-1.6666-1.6667 2.1666-2.1666L116.667 114.5l-2.167 2.167ZM108 110l-6.5-6.5-3.1667 4-4.1667-5-5.8333 7.5H108Z" fill="#83339E"/><path d="M115 148.667 91.3333 125h20.3337c1.833 0 3.333 1.5 3.333 3.333v20.334Zm-.5 8L112.833 155H88.3333c-1.8334 0-3.3334-1.5-3.3334-3.333v-24.5l-1.6666-1.667 2.1666-2.167L116.667 154.5l-2.167 2.167ZM108 150l-6.5-6.5-3.1667 4-4.1667-5-5.8333 7.5H108Z" fill="#000"/><path d="M115 188.667 91.3333 165h20.3337c1.833 0 3.333 1.5 3.333 3.333v20.334Zm-.5 8L112.833 195H88.3333c-1.8334 0-3.3334-1.5-3.3334-3.333v-24.5l-1.6666-1.667 2.1666-2.167L116.667 194.5l-2.167 2.167ZM108 190l-6.5-6.5-3.1667 4-4.1667-5-5.8333 7.5H108Z" fill="#83339E"/><path d="M115 228.667 91.3333 205h20.3337c1.833 0 3.333 1.5 3.333 3.333v20.334Zm-.5 8L112.833 235H88.3333c-1.8334 0-3.3334-1.5-3.3334-3.333v-24.5l-1.6666-1.667 2.1666-2.167L116.667 234.5l-2.167 2.167ZM108 230l-6.5-6.5-3.1667 4-4.1667-5-5.8333 7.5H108Z" fill="#000"/><path d="M115 268.667 91.3333 245h20.3337c1.833 0 3.333 1.5 3.333 3.333v20.334Zm-.5 8L112.833 275H88.3333c-1.8334 0-3.3334-1.5-3.3334-3.333v-24.5l-1.6666-1.667 2.1666-2.167L116.667 274.5l-2.167 2.167ZM108 270l-6.5-6.5-3.1667 4-4.1667-5-5.8333 7.5H108ZM150 219.333c.884 0 1.732.351 2.357.977.625.625.976 1.473.976 2.357v26.666c0 .884-.351 1.732-.976 2.357-.625.625-1.473.977-2.357.977h-20c-.884 0-1.732-.352-2.357-.977-.625-.625-.976-1.473-.976-2.357v-26.666c0-.884.351-1.732.976-2.357.625-.626 1.473-.977 2.357-.977h20Zm0 3.334h-8.333V236l-4.167-3.75-4.167 3.75v-13.333H130v26.666h20v-26.666Z" fill="#83339E"/><path d="M150 179.333c.884 0 1.732.351 2.357.977.625.625.976 1.473.976 2.357v26.666c0 .884-.351 1.732-.976 2.357-.625.625-1.473.977-2.357.977h-20c-.884 0-1.732-.352-2.357-.977-.625-.625-.976-1.473-.976-2.357v-26.666c0-.884.351-1.732.976-2.357.625-.626 1.473-.977 2.357-.977h20Zm0 3.334h-8.333V196l-4.167-3.75-4.167 3.75v-13.333H130v26.666h20v-26.666Z" fill="#000"/><path d="M150 139.333c.884 0 1.732.351 2.357.977.625.625.976 1.473.976 2.357v26.666c0 .884-.351 1.732-.976 2.357-.625.625-1.473.977-2.357.977h-20c-.884 0-1.732-.352-2.357-.977-.625-.625-.976-1.473-.976-2.357v-26.666c0-.884.351-1.732.976-2.357.625-.626 1.473-.977 2.357-.977h20Zm0 3.334h-8.333V156l-4.167-3.75-4.167 3.75v-13.333H130v26.666h20v-26.666Z" fill="#83339E"/><path d="M150 99.3333c.884 0 1.732.3511 2.357.9767.625.625.976 1.473.976 2.357v26.666c0 .884-.351 1.732-.976 2.357-.625.625-1.473.977-2.357.977h-20c-.884 0-1.732-.352-2.357-.977-.625-.625-.976-1.473-.976-2.357v-26.666c0-.884.351-1.732.976-2.357.625-.6256 1.473-.9767 2.357-.9767h20Zm0 3.3337h-8.333V116l-4.167-3.75-4.167 3.75v-13.333H130v26.666h20v-26.666Z" fill="#000"/><path d="M150 59.3333c.884 0 1.732.3511 2.357.9763.625.6251.976 1.4729.976 2.357v26.6667c0 .884-.351 1.7319-.976 2.357-.625.6251-1.473.9763-2.357.9763h-20c-.884 0-1.732-.3512-2.357-.9763-.625-.6251-.976-1.473-.976-2.357V62.6666c0-.8841.351-1.7319.976-2.357.625-.6252 1.473-.9763 2.357-.9763h20Zm0 3.3333h-8.333v13.3333l-4.167-3.75-4.167 3.75V62.6666H130v26.6667h20V62.6666Z" fill="#83339E"/><path d="M150 19.3333c.884 0 1.732.3511 2.357.9763.625.6251.976 1.4729.976 2.357v26.6667c0 .884-.351 1.7319-.976 2.357-.625.6251-1.473.9763-2.357.9763h-20c-.884 0-1.732-.3512-2.357-.9763-.625-.6251-.976-1.473-.976-2.357V22.6666c0-.8841.351-1.7319.976-2.357.625-.6252 1.473-.9763 2.357-.9763h20Zm0 3.3333h-8.333v13.3333l-4.167-3.75-4.167 3.75V22.6666H130v26.6667h20V22.6666Z" fill="#000"/><path d="M150-20.6667c.884 0 1.732.3511 2.357.9763.625.6251.976 1.4729.976 2.357V9.33325c0 .88405-.351 1.73195-.976 2.35705s-1.473.9763-2.357.9763h-20c-.884 0-1.732-.3512-2.357-.9763-.625-.6251-.976-1.473-.976-2.35705V-17.3334c0-.8841.351-1.7319.976-2.357.625-.6252 1.473-.9763 2.357-.9763h20Zm0 3.3333h-8.333v13.33332l-4.167-3.75-4.167 3.75V-17.3334H130V9.33325h20V-17.3334Z" fill="#83339E"/></g><defs><clipPath id="a"><path fill="#fff" d="M0 0h160v256H0z"/></clipPath></defs></svg>